<?xml version="1.0" encoding="UTF-8"?>
<svg xmlns="http://www.w3.org/2000/svg" xmlns:xlink="http://www.w3.org/1999/xlink" viewBox="0 0 500 500" width="500px" height="500px">
<g id="surface105605985">
<path style=" stroke:none;fill-rule:nonzero;fill:rgb(4.705882%,10.980392%,20%);fill-opacity:1;" d="M 210 30 C 116.210938 30 40 106.210938 40 200 C 40 293.789062 116.210938 370 210 370 C 247.109375 370 281.40625 358.046875 309.375 337.8125 L 440.9375 469.0625 L 469.0625 440.9375 L 339.0625 310.625 C 364.609375 280.859375 380 242.226562 380 200 C 380 106.210938 303.789062 30 210 30 Z M 210 50 C 292.96875 50 360 117.03125 360 200 C 360 282.96875 292.96875 350 210 350 C 127.03125 350 60 282.96875 60 200 C 60 117.03125 127.03125 50 210 50 Z M 210 50 "/>
</g>
</svg>
